<?xml version="1.0" standalone="no"?>
<!DOCTYPE svg PUBLIC "-//W3C//DTD SVG 20010904//EN"
 "http://www.w3.org/TR/2001/REC-SVG-20010904/DTD/svg10.dtd">
<svg version="1.0" xmlns="http://www.w3.org/2000/svg"
 width="64.000000pt" height="64.000000pt" viewBox="0 0 64.000000 64.000000"
 preserveAspectRatio="xMidYMid meet">

<g transform="translate(0.000000,64.000000) scale(0.100000,-0.100000)"
fill="#000000" stroke="none">
<path d="M11 591 c-29 -18 -4 -40 50 -43 l53 -3 44 -179 c43 -171 44 -179 28
-206 -21 -36 -20 -62 2 -91 39 -47 122 -16 122 47 0 23 3 24 70 24 l70 0 0
-28 c0 -70 102 -89 129 -24 14 33 0 75 -28 88 -9 5 -81 10 -161 14 -141 5
-145 6 -148 28 l-3 22 164 0 c120 0 167 3 174 12 15 19 66 235 58 247 -4 7
-84 11 -235 11 l-228 0 -12 36 c-8 22 -21 39 -37 45 -31 11 -94 12 -112 0z
m574 -143 c-3 -13 -14 -54 -24 -93 l-17 -70 -160 0 -159 0 -16 65 c-8 36 -19
77 -22 93 l-7 27 205 0 205 0 -5 -22z m-322 -320 c6 -19 -3 -38 -18 -38 -18 0
-28 17 -21 35 7 18 33 20 39 3z m275 -11 c4 -20 -25 -34 -40 -19 -15 15 -1 44
19 40 10 -2 19 -11 21 -21z"/>
</g>
</svg>
