<svg width="12.744141" height="22.000000" viewBox="0 0 12.7441 22" fill="none" xmlns="http://www.w3.org/2000/svg" xmlns:xlink="http://www.w3.org/1999/xlink">
	<desc>
			Created with Pixso.
	</desc>
	<defs/>
	<path id="Vector" d="M6.37 3.32C7.66 3.32 8.72 4.38 8.72 5.67C8.72 6.97 7.66 8.02 6.37 8.02C5.07 8.02 4.02 6.97 4.02 5.67C4.02 4.38 5.07 3.32 6.37 3.32ZM6.37 11.35C9.5 11.35 12.04 8.8 12.04 5.67C12.04 2.54 9.5 0 6.37 0C3.24 0 0.69 2.54 0.69 5.67C0.69 8.8 3.24 11.35 6.37 11.35ZM8.66 15.98C9.82 15.72 10.93 15.26 11.96 14.62C12.74 14.13 12.97 13.1 12.48 12.32C11.99 11.54 10.97 11.31 10.19 11.8C7.86 13.26 4.87 13.26 2.54 11.8C1.77 11.31 0.74 11.54 0.25 12.32C-0.24 13.1 0 14.13 0.77 14.62C1.8 15.26 2.91 15.72 4.07 15.98L0.9 19.16C0.25 19.81 0.25 20.86 0.9 21.51C1.22 21.83 1.65 22 2.07 22C2.5 22 2.92 21.83 3.25 21.51L6.37 18.39L9.49 21.51C10.14 22.16 11.19 22.16 11.84 21.51C12.49 20.86 12.49 19.8 11.84 19.16C11.84 19.16 8.66 15.98 8.66 15.98Z" fill="#99CB38" fill-opacity="1.000000" fill-rule="nonzero"/>
</svg>
