<svg width="31.306641" height="30.215820" viewBox="0 0 31.3066 30.2158" fill="none" xmlns="http://www.w3.org/2000/svg" xmlns:xlink="http://www.w3.org/1999/xlink">
	<desc>
			Created with Pixso.
	</desc>
	<defs/>
	<path id="Vector" d="M30.88 2.42L25.02 2.42L17.81 0.14C17.38 0 16.92 -0.04 16.46 0.02C16.01 0.08 15.58 0.23 15.2 0.47L10.85 3.16C10.8 3.19 10.76 3.23 10.73 3.28C10.7 3.32 10.67 3.37 10.66 3.42C10.65 3.47 10.65 3.53 10.66 3.58C10.67 3.63 10.69 3.69 10.72 3.73C10.75 3.78 10.79 3.82 10.83 3.85C10.88 3.88 10.93 3.9 10.99 3.91C11.04 3.92 11.1 3.92 11.15 3.91C11.21 3.9 11.26 3.88 11.31 3.85L15.65 1.16C15.93 0.99 16.25 0.88 16.57 0.84C16.9 0.8 17.23 0.83 17.55 0.93L24.83 3.22C24.87 3.23 24.91 3.24 24.96 3.24L30.45 3.24L30.45 10.12L27.3 10.12C27.22 10.12 27.14 10.14 27.08 10.18C27.01 10.22 26.96 10.28 26.92 10.34C26.44 11.12 25.72 11.73 24.85 12.07L24.85 10.22C25.53 9.94 26.26 9.46 26.72 8.61C26.75 8.56 26.76 8.51 26.77 8.45C26.77 8.4 26.77 8.34 26.75 8.29C26.74 8.24 26.71 8.19 26.67 8.15C26.64 8.11 26.59 8.08 26.54 8.05C26.5 8.03 26.44 8.01 26.39 8C26.33 8 26.27 8 26.22 8.02C26.17 8.04 26.12 8.06 26.08 8.1C26.03 8.13 26 8.17 25.97 8.22C25.16 9.71 23.16 9.78 23.15 9.78C20.46 9.78 19.68 7.97 19.65 7.89C19.62 7.81 19.57 7.75 19.5 7.7C19.42 7.65 19.34 7.63 19.25 7.63L15.27 7.63C15.12 7.63 14.97 7.61 14.83 7.55C14.68 7.5 14.56 7.42 14.45 7.32C14.34 7.22 14.25 7.09 14.19 6.96C14.14 6.82 14.11 6.68 14.11 6.53C14.11 6.39 14.14 6.24 14.19 6.11C14.25 5.97 14.34 5.85 14.45 5.75C14.56 5.65 14.68 5.57 14.83 5.51C14.97 5.46 15.12 5.44 15.27 5.44L20.03 5.44C20.08 5.44 20.14 5.43 20.2 5.41C20.25 5.39 20.3 5.36 20.34 5.33C20.38 5.29 20.41 5.24 20.44 5.19C20.46 5.14 20.47 5.08 20.47 5.03C20.47 4.97 20.46 4.92 20.44 4.87C20.41 4.82 20.38 4.77 20.34 4.73C20.3 4.7 20.25 4.66 20.2 4.65C20.14 4.63 20.08 4.62 20.03 4.62L15.27 4.62C15 4.61 14.74 4.66 14.5 4.75C14.25 4.85 14.03 4.99 13.84 5.17C13.65 5.34 13.5 5.56 13.4 5.79C13.3 6.03 13.25 6.28 13.25 6.53C13.25 6.79 13.3 7.04 13.4 7.28C13.5 7.51 13.65 7.72 13.84 7.9C14.03 8.08 14.25 8.22 14.5 8.31C14.74 8.41 15 8.45 15.27 8.45L18.99 8.45C19.34 9.08 20.48 10.6 23.16 10.6C23.44 10.59 23.72 10.55 24 10.48L24 16.56C24 16.72 23.94 16.88 23.82 16.99C23.7 17.1 23.54 17.17 23.38 17.17L1.47 17.17C1.3 17.17 1.15 17.1 1.03 16.99C0.91 16.88 0.84 16.72 0.84 16.56L0.84 6.04C0.84 5.88 0.91 5.73 1.03 5.62C1.14 5.5 1.3 5.44 1.47 5.44L12.29 5.44C12.35 5.44 12.41 5.43 12.46 5.41C12.52 5.39 12.57 5.36 12.61 5.33C12.65 5.29 12.68 5.24 12.7 5.19C12.73 5.14 12.74 5.08 12.74 5.03C12.74 4.97 12.73 4.92 12.7 4.87C12.68 4.82 12.65 4.77 12.61 4.73C12.57 4.7 12.52 4.66 12.46 4.65C12.41 4.63 12.35 4.62 12.29 4.62L1.47 4.62C1.08 4.62 0.71 4.77 0.43 5.04C0.15 5.31 0 5.67 0 6.04L0 16.56C0 16.94 0.15 17.3 0.43 17.57C0.71 17.84 1.08 17.99 1.47 17.99L23.38 17.99C23.77 17.99 24.14 17.84 24.42 17.57C24.69 17.3 24.85 16.94 24.85 16.56L24.85 12.93C26.37 12.47 27.23 11.41 27.54 10.94L30.88 10.94C30.99 10.94 31.1 10.9 31.18 10.82C31.26 10.75 31.3 10.64 31.3 10.53L31.3 2.83C31.3 2.72 31.26 2.61 31.18 2.54C31.1 2.46 30.99 2.42 30.88 2.42Z" fill="#000000" fill-opacity="1.000000" fill-rule="nonzero"/>
	<path id="Vector" d="M2.87 13.46L2.87 9.14C3.32 9.06 3.73 8.85 4.05 8.54C4.37 8.23 4.59 7.83 4.68 7.4L11.92 7.4C12.04 7.39 12.14 7.35 12.21 7.27C12.29 7.2 12.33 7.09 12.33 6.99C12.33 6.88 12.29 6.78 12.21 6.7C12.14 6.63 12.04 6.58 11.92 6.58L4.29 6.58C4.18 6.58 4.07 6.62 3.99 6.7C3.91 6.78 3.87 6.88 3.87 6.99C3.87 7.17 3.83 7.35 3.76 7.51C3.69 7.68 3.58 7.83 3.45 7.96C3.32 8.09 3.16 8.19 2.99 8.26C2.82 8.33 2.64 8.36 2.45 8.36C2.34 8.36 2.23 8.41 2.15 8.48C2.07 8.56 2.03 8.66 2.03 8.77L2.03 13.83C2.03 13.89 2.04 13.94 2.06 13.99C2.08 14.04 2.11 14.09 2.15 14.12C2.19 14.16 2.24 14.19 2.29 14.21C2.34 14.23 2.4 14.24 2.45 14.24C2.83 14.25 3.19 14.39 3.45 14.65C3.72 14.9 3.87 15.25 3.87 15.62C3.87 15.67 3.88 15.72 3.9 15.77C3.92 15.82 3.96 15.87 4 15.91C4.03 15.94 4.08 15.97 4.13 15.99C4.18 16.02 4.24 16.03 4.3 16.03L20.55 16.03C20.61 16.03 20.66 16.02 20.71 15.99C20.77 15.97 20.81 15.94 20.85 15.91C20.89 15.87 20.92 15.82 20.94 15.77C20.97 15.72 20.98 15.67 20.98 15.62C20.98 15.25 21.13 14.9 21.39 14.65C21.66 14.39 22.02 14.25 22.4 14.24C22.45 14.24 22.51 14.23 22.56 14.21C22.61 14.19 22.66 14.16 22.7 14.12C22.74 14.09 22.77 14.04 22.79 13.99C22.81 13.94 22.82 13.89 22.82 13.83L22.82 11.98C22.82 11.93 22.81 11.87 22.79 11.82C22.77 11.77 22.74 11.72 22.7 11.68C22.66 11.64 22.62 11.61 22.56 11.59C22.51 11.57 22.45 11.55 22.4 11.55C22.34 11.55 22.28 11.57 22.23 11.59C22.18 11.61 22.13 11.64 22.09 11.68C22.05 11.72 22.02 11.77 22 11.82C21.98 11.87 21.97 11.93 21.97 11.98L21.97 13.46C21.52 13.55 21.11 13.76 20.79 14.07C20.47 14.38 20.25 14.77 20.17 15.21L4.68 15.21C4.59 14.77 4.37 14.38 4.05 14.07C3.73 13.76 3.32 13.55 2.87 13.46Z" fill="#FBD846" fill-opacity="1.000000" fill-rule="nonzero"/>
	<path id="Vector" d="M11.86 9.95L12.89 9.95C13 9.95 13.1 9.91 13.17 9.83C13.25 9.75 13.29 9.65 13.29 9.54C13.29 9.44 13.25 9.34 13.17 9.26C13.1 9.18 13 9.14 12.89 9.13L12.55 9.13L12.55 8.87C12.55 8.82 12.54 8.76 12.52 8.71C12.5 8.66 12.47 8.61 12.43 8.57C12.39 8.53 12.35 8.5 12.29 8.48C12.24 8.45 12.18 8.44 12.13 8.44C12.07 8.44 12.01 8.45 11.96 8.48C11.91 8.5 11.86 8.53 11.82 8.57C11.78 8.61 11.75 8.66 11.73 8.71C11.71 8.76 11.7 8.82 11.7 8.87L11.7 9.14C11.35 9.17 11.03 9.33 10.8 9.58C10.57 9.84 10.45 10.17 10.47 10.51C10.49 10.84 10.65 11.16 10.91 11.39C11.17 11.61 11.51 11.73 11.86 11.71L12.39 11.71C12.52 11.71 12.64 11.76 12.73 11.85C12.83 11.94 12.88 12.06 12.88 12.18C12.88 12.31 12.83 12.43 12.73 12.52C12.64 12.61 12.52 12.65 12.39 12.65L11.37 12.65C11.31 12.65 11.25 12.66 11.2 12.68C11.15 12.7 11.1 12.73 11.06 12.77C11.01 12.81 10.98 12.85 10.96 12.9C10.94 12.96 10.93 13.01 10.93 13.06C10.93 13.12 10.94 13.17 10.96 13.23C10.98 13.28 11.01 13.32 11.06 13.36C11.1 13.4 11.15 13.43 11.2 13.45C11.25 13.47 11.31 13.48 11.37 13.47L11.7 13.47L11.7 13.74C11.71 13.84 11.75 13.94 11.83 14.02C11.91 14.09 12.02 14.13 12.13 14.13C12.24 14.13 12.34 14.09 12.42 14.02C12.5 13.94 12.55 13.84 12.55 13.74L12.55 13.46C12.9 13.44 13.23 13.28 13.46 13.03C13.69 12.77 13.8 12.44 13.78 12.1C13.76 11.76 13.6 11.45 13.34 11.22C13.08 11 12.74 10.88 12.39 10.89L11.86 10.89C11.8 10.9 11.73 10.89 11.67 10.86C11.61 10.84 11.55 10.81 11.51 10.76C11.46 10.72 11.42 10.67 11.4 10.61C11.37 10.55 11.36 10.49 11.36 10.42C11.36 10.36 11.37 10.3 11.4 10.24C11.42 10.18 11.46 10.13 11.51 10.09C11.55 10.04 11.61 10.01 11.67 9.99C11.73 9.96 11.8 9.95 11.86 9.95Z" fill="#FBD846" fill-opacity="1.000000" fill-rule="nonzero"/>
	<path id="Vector" d="M7.45 11.01C7.37 11.09 7.33 11.19 7.32 11.3C7.32 11.33 7.33 11.35 7.33 11.38C7.34 11.41 7.34 11.43 7.36 11.46C7.37 11.48 7.38 11.51 7.4 11.53C7.41 11.55 7.43 11.57 7.45 11.59C7.47 11.61 7.49 11.63 7.51 11.64C7.54 11.66 7.56 11.67 7.59 11.68C7.61 11.69 7.64 11.7 7.66 11.7C7.69 11.71 7.72 11.71 7.75 11.71C7.86 11.71 7.97 11.67 8.05 11.59C8.07 11.57 8.09 11.55 8.1 11.53C8.12 11.5 8.13 11.48 8.14 11.46C8.15 11.43 8.16 11.41 8.16 11.38C8.17 11.35 8.17 11.33 8.17 11.3C8.17 11.22 8.15 11.14 8.1 11.07C8.05 11.01 7.99 10.95 7.91 10.92C7.83 10.89 7.75 10.89 7.66 10.9C7.58 10.92 7.51 10.96 7.45 11.01L7.45 11.01Z" fill="#FBD846" fill-opacity="1.000000" fill-rule="nonzero"/>
	<path id="Vector" d="M16.75 11.53C16.76 11.55 16.78 11.57 16.8 11.59C16.84 11.64 16.9 11.67 16.95 11.69C17.01 11.71 17.08 11.72 17.14 11.71C17.2 11.71 17.26 11.69 17.32 11.66C17.37 11.62 17.41 11.58 17.45 11.53C17.47 11.51 17.48 11.49 17.49 11.46C17.5 11.44 17.51 11.41 17.51 11.38C17.52 11.36 17.52 11.33 17.52 11.3C17.52 11.25 17.51 11.19 17.5 11.14C17.48 11.09 17.44 11.04 17.41 11C17.36 10.96 17.32 10.93 17.26 10.91C17.21 10.89 17.16 10.88 17.1 10.88C17.04 10.88 16.98 10.89 16.93 10.91C16.88 10.93 16.83 10.96 16.79 11C16.75 11.04 16.72 11.09 16.7 11.14C16.68 11.19 16.67 11.25 16.67 11.3C16.67 11.33 16.68 11.36 16.68 11.38C16.69 11.41 16.7 11.44 16.71 11.46C16.72 11.48 16.73 11.51 16.75 11.53Z" fill="#FBD846" fill-opacity="1.000000" fill-rule="nonzero"/>
	<path id="Vector" d="M27.46 17.74C27.06 17.44 26.56 17.3 26.06 17.33C25.56 17.37 25.08 17.59 24.74 17.95L22.06 20.75C22.02 20.79 21.98 20.83 21.96 20.89C21.94 20.94 21.93 20.99 21.93 21.05C21.93 21.1 21.95 21.16 21.97 21.21C21.99 21.26 22.03 21.3 22.07 21.34C22.11 21.38 22.16 21.41 22.21 21.43C22.27 21.44 22.33 21.45 22.38 21.45C22.44 21.45 22.5 21.43 22.55 21.41C22.6 21.38 22.64 21.35 22.68 21.31L25.36 18.5C25.56 18.3 25.83 18.17 26.12 18.15C26.41 18.13 26.7 18.21 26.93 18.39C27.05 18.48 27.15 18.59 27.22 18.72C27.29 18.85 27.34 18.99 27.36 19.14C27.37 19.29 27.36 19.43 27.32 19.58C27.27 19.72 27.2 19.85 27.1 19.96L22.43 25.48C22.09 25.89 21.61 26.15 21.08 26.22L12.03 27.49C11.57 27.55 11.13 27.72 10.75 27.98C10.37 28.23 10.05 28.57 9.82 28.96L9.58 29.39L1.25 29.39L5.57 23.24C6.18 22.35 7.04 21.64 8.04 21.19C9.04 20.74 10.16 20.56 11.26 20.68C11.99 20.75 12.7 20.9 13.4 21.13C13.87 21.3 14.37 21.38 14.87 21.38L19.19 21.38C19.52 21.38 19.84 21.51 20.08 21.74C20.31 21.96 20.44 22.27 20.44 22.59C20.44 22.94 20.3 23.27 20.05 23.51C19.79 23.76 19.45 23.9 19.09 23.9L15.13 23.9C14.48 23.9 13.85 24.12 13.35 24.52L12.42 25.26C12.34 25.33 12.29 25.43 12.28 25.54C12.27 25.64 12.3 25.75 12.37 25.83C12.44 25.91 12.55 25.97 12.66 25.98C12.77 25.99 12.88 25.96 12.96 25.89L13.9 25.15C14.24 24.87 14.67 24.72 15.12 24.72L19.09 24.72C19.67 24.72 20.23 24.49 20.65 24.09C21.06 23.7 21.29 23.16 21.29 22.59C21.29 22.06 21.07 21.54 20.67 21.16C20.28 20.78 19.75 20.57 19.19 20.57L14.87 20.57C14.46 20.56 14.06 20.49 13.68 20.36C12.93 20.11 12.15 19.94 11.35 19.86C10.1 19.73 8.83 19.93 7.68 20.44C6.54 20.96 5.57 21.76 4.86 22.77L0.1 29.57C0.06 29.63 0.03 29.7 0.03 29.78C0.02 29.85 0.04 29.93 0.08 29.99C0.11 30.06 0.17 30.11 0.23 30.15C0.3 30.19 0.38 30.21 0.45 30.21L9.83 30.21C9.9 30.21 9.98 30.19 10.04 30.15C10.11 30.11 10.16 30.06 10.2 30L10.57 29.35C10.73 29.07 10.96 28.83 11.23 28.65C11.5 28.46 11.82 28.34 12.15 28.3L21.2 27.04C21.94 26.93 22.62 26.56 23.09 26L27.76 20.48C27.93 20.28 28.06 20.05 28.13 19.81C28.21 19.56 28.24 19.31 28.21 19.05C28.18 18.8 28.1 18.55 27.97 18.32C27.84 18.1 27.67 17.9 27.46 17.74L27.46 17.74Z" fill="#000000" fill-opacity="1.000000" fill-rule="nonzero"/>
</svg>
