<svg width="78.666016" height="77.059570" viewBox="0 0 78.666 77.0596" fill="none" xmlns="http://www.w3.org/2000/svg" xmlns:xlink="http://www.w3.org/1999/xlink">
	<desc>
			Created with Pixso.
	</desc>
	<defs/>
	<path id="Vector" d="M77.06 74.54C69.05 74.54 61.02 74.54 53.01 74.54C39.71 74.54 26.41 74.54 13.11 74.54C9.26 74.54 5.44 74.54 1.6 74.54C2.13 74.96 2.66 75.37 3.2 75.79C3.2 70.42 3.2 65.05 3.2 59.67C3.2 48.92 3.2 38.17 3.2 27.42C3.2 19.38 3.2 11.33 3.2 3.3C3.2 2.62 3.2 1.94 3.2 1.25C2.66 1.67 2.13 2.09 1.6 2.51C9.6 2.51 17.63 2.51 25.64 2.51C38.94 2.51 52.25 2.51 65.55 2.51C69.39 2.51 73.22 2.51 77.06 2.51C76.52 2.09 75.99 1.67 75.46 1.25C75.46 6.63 75.46 12 75.46 17.38C75.46 28.13 75.46 38.88 75.46 49.63C75.46 57.67 75.46 65.72 75.46 73.75C75.46 74.43 75.46 75.11 75.46 75.79C75.46 77.42 78.66 77.42 78.66 75.79C78.66 70.42 78.66 65.05 78.66 59.67C78.66 48.92 78.66 38.17 78.66 27.42C78.66 19.38 78.66 11.33 78.66 3.3C78.66 2.62 78.66 1.94 78.66 1.25C78.66 0.57 77.93 0 77.06 0C69.05 0 61.02 0 53.01 0C39.71 0 26.41 0 13.11 0C9.26 0 5.44 0 1.6 0C0.72 0 0 0.57 0 1.25C0 6.63 0 12 0 17.38C0 28.13 0 38.88 0 49.63C0 57.67 0 65.72 0 73.75C0 74.43 0 75.11 0 75.79C0 76.48 0.72 77.05 1.6 77.05C9.6 77.05 17.63 77.05 25.64 77.05C38.94 77.05 52.25 77.05 65.55 77.05C69.39 77.05 73.22 77.05 77.06 77.05C79.13 77.05 79.13 74.54 77.06 74.54Z" fill="#333333" fill-opacity="1.000000" fill-rule="nonzero"/>
</svg>
