<svg width="86.000000" height="85.933594" viewBox="0 0 86 85.9336" fill="none" xmlns="http://www.w3.org/2000/svg" xmlns:xlink="http://www.w3.org/1999/xlink">
	<desc>
			Created with Pixso.
	</desc>
	<defs/>
	<path id="Vector" d="M84.83 6.88L68.75 6.88L48.93 0.41C47.74 0.02 46.48 -0.1 45.24 0.06C44 0.22 42.8 0.66 41.75 1.34L29.81 9.01C29.68 9.09 29.57 9.2 29.48 9.32C29.39 9.45 29.33 9.59 29.3 9.74C29.27 9.89 29.26 10.04 29.29 10.2C29.32 10.35 29.37 10.49 29.46 10.62C29.54 10.75 29.65 10.86 29.77 10.95C29.9 11.03 30.04 11.1 30.19 11.13C30.34 11.16 30.49 11.16 30.64 11.14C30.79 11.11 30.94 11.05 31.07 10.97L43.01 3.31C43.77 2.82 44.63 2.51 45.53 2.39C46.43 2.28 47.35 2.37 48.21 2.65L68.21 9.16C68.33 9.2 68.45 9.21 68.57 9.21L83.66 9.21L83.66 28.8L74.99 28.8C74.78 28.8 74.57 28.86 74.39 28.97C74.2 29.08 74.06 29.24 73.96 29.43C72.65 31.64 70.66 33.36 68.28 34.33L68.28 29.08C70.15 28.29 72.14 26.9 73.41 24.48C73.49 24.35 73.53 24.2 73.54 24.05C73.56 23.89 73.54 23.74 73.5 23.59C73.45 23.45 73.38 23.31 73.28 23.19C73.18 23.07 73.06 22.98 72.93 22.9C72.79 22.83 72.64 22.79 72.49 22.77C72.34 22.76 72.18 22.78 72.04 22.82C71.89 22.87 71.75 22.94 71.64 23.04C71.52 23.14 71.42 23.26 71.35 23.39C69.13 27.63 63.62 27.82 63.59 27.82C56.21 27.82 54.08 22.66 53.99 22.45C53.91 22.23 53.76 22.04 53.56 21.91C53.37 21.78 53.14 21.7 52.9 21.7L41.95 21.7C41.53 21.71 41.12 21.64 40.73 21.49C40.35 21.34 40 21.11 39.7 20.82C39.4 20.53 39.16 20.18 39 19.8C38.84 19.42 38.76 19.01 38.76 18.59C38.76 18.18 38.84 17.76 39 17.38C39.16 17 39.4 16.65 39.7 16.36C40 16.07 40.35 15.84 40.73 15.69C41.12 15.54 41.53 15.47 41.95 15.48L55.02 15.48C55.18 15.49 55.34 15.46 55.49 15.4C55.63 15.35 55.77 15.26 55.88 15.16C56 15.05 56.08 14.91 56.15 14.77C56.21 14.63 56.24 14.47 56.24 14.31C56.24 14.16 56.21 14 56.15 13.85C56.08 13.71 56 13.58 55.88 13.47C55.77 13.36 55.63 13.28 55.49 13.22C55.34 13.16 55.18 13.14 55.02 13.15L41.95 13.15C41.23 13.13 40.51 13.26 39.83 13.53C39.16 13.8 38.55 14.2 38.03 14.7C37.51 15.21 37.1 15.82 36.82 16.48C36.54 17.15 36.4 17.87 36.4 18.59C36.4 19.32 36.54 20.03 36.82 20.7C37.1 21.37 37.51 21.97 38.03 22.48C38.55 22.99 39.16 23.38 39.83 23.65C40.51 23.92 41.23 24.05 41.95 24.04L52.17 24.04C53.15 25.82 56.27 30.15 63.61 30.15C64.4 30.12 65.18 30.01 65.94 29.83L65.94 47.11C65.94 47.57 65.76 48 65.44 48.33C65.12 48.65 64.68 48.83 64.23 48.83L4.05 48.83C3.59 48.83 3.16 48.65 2.83 48.33C2.51 48.01 2.33 47.57 2.33 47.12L2.33 17.2C2.33 16.74 2.51 16.31 2.83 15.98C3.15 15.66 3.59 15.48 4.05 15.48L33.78 15.48C33.94 15.49 34.09 15.46 34.24 15.4C34.39 15.35 34.52 15.26 34.64 15.16C34.75 15.05 34.84 14.91 34.9 14.77C34.97 14.63 35 14.47 35 14.31C35 14.16 34.97 14 34.9 13.85C34.84 13.71 34.75 13.58 34.64 13.47C34.52 13.36 34.39 13.28 34.24 13.22C34.09 13.16 33.94 13.14 33.78 13.15L4.05 13.15C2.97 13.15 1.95 13.58 1.19 14.34C0.43 15.1 0 16.13 0 17.2L0 47.12C0 48.19 0.43 49.22 1.19 49.98C1.95 50.74 2.97 51.16 4.05 51.17L64.23 51.17C65.3 51.16 66.33 50.74 67.09 49.98C67.84 49.22 68.27 48.19 68.28 47.12L68.28 36.8C72.46 35.46 74.8 32.45 75.65 31.13L84.83 31.13C85.14 31.13 85.43 31.01 85.65 30.79C85.87 30.57 86 30.27 86 29.96L86 8.05C86 7.74 85.87 7.44 85.65 7.22C85.43 7 85.14 6.88 84.83 6.88Z" fill="#000000" fill-opacity="1.000000" fill-rule="nonzero"/>
	<path id="Vector" d="M7.9 38.3L7.9 26.01C9.13 25.77 10.25 25.17 11.14 24.29C12.02 23.41 12.62 22.28 12.85 21.05L32.77 21.05C33.07 21.04 33.35 20.91 33.56 20.69C33.77 20.48 33.89 20.19 33.89 19.89C33.89 19.58 33.77 19.29 33.56 19.08C33.35 18.86 33.07 18.73 32.77 18.72L11.8 18.72C11.49 18.72 11.19 18.84 10.97 19.06C10.75 19.28 10.63 19.58 10.63 19.89C10.63 20.4 10.53 20.91 10.34 21.38C10.14 21.86 9.85 22.29 9.49 22.65C9.13 23.01 8.7 23.3 8.23 23.5C7.75 23.69 7.25 23.79 6.73 23.79C6.43 23.8 6.13 23.92 5.92 24.14C5.7 24.35 5.58 24.65 5.58 24.95L5.58 39.36C5.58 39.51 5.6 39.66 5.66 39.8C5.72 39.95 5.81 40.07 5.92 40.18C6.03 40.29 6.15 40.38 6.3 40.43C6.44 40.49 6.59 40.52 6.74 40.52C7.78 40.52 8.77 40.94 9.5 41.67C10.23 42.4 10.64 43.39 10.64 44.42C10.64 44.58 10.67 44.73 10.73 44.87C10.79 45.01 10.87 45.14 10.98 45.25C11.09 45.36 11.22 45.44 11.36 45.5C11.5 45.56 11.66 45.59 11.81 45.59L56.47 45.59C56.62 45.59 56.77 45.56 56.91 45.5C57.05 45.44 57.18 45.36 57.29 45.25C57.4 45.14 57.49 45.01 57.54 44.87C57.6 44.73 57.63 44.58 57.63 44.42C57.63 43.39 58.04 42.4 58.77 41.67C59.51 40.94 60.5 40.52 61.53 40.52C61.68 40.52 61.83 40.49 61.98 40.43C62.12 40.38 62.25 40.29 62.36 40.18C62.46 40.07 62.55 39.95 62.61 39.8C62.67 39.66 62.7 39.51 62.7 39.36L62.7 34.09C62.7 33.93 62.68 33.77 62.62 33.62C62.57 33.48 62.48 33.34 62.37 33.23C62.26 33.12 62.13 33.03 61.99 32.96C61.84 32.9 61.69 32.87 61.53 32.87C61.37 32.87 61.22 32.9 61.07 32.96C60.93 33.03 60.8 33.12 60.69 33.23C60.58 33.34 60.5 33.48 60.44 33.62C60.38 33.77 60.36 33.93 60.37 34.09L60.37 38.3C59.14 38.54 58.01 39.13 57.13 40.02C56.25 40.9 55.65 42.03 55.41 43.26L12.85 43.26C12.62 42.03 12.02 40.9 11.14 40.02C10.25 39.13 9.13 38.54 7.9 38.3Z" fill="#FBD846" fill-opacity="1.000000" fill-rule="nonzero"/>
	<path id="Vector" d="M32.6 28.32L35.41 28.32C35.71 28.31 35.99 28.18 36.2 27.96C36.41 27.75 36.52 27.46 36.52 27.16C36.52 26.85 36.41 26.56 36.2 26.35C35.99 26.13 35.71 26 35.41 25.99L34.49 25.99L34.49 25.24C34.5 25.08 34.47 24.92 34.41 24.78C34.36 24.63 34.27 24.5 34.16 24.38C34.06 24.27 33.92 24.18 33.78 24.12C33.63 24.05 33.48 24.02 33.32 24.02C33.16 24.02 33.01 24.05 32.86 24.12C32.72 24.18 32.59 24.27 32.48 24.38C32.37 24.5 32.29 24.63 32.23 24.78C32.17 24.92 32.15 25.08 32.16 25.24L32.16 26.02C31.2 26.09 30.31 26.54 29.67 27.26C29.04 27.99 28.72 28.93 28.78 29.89C28.83 30.85 29.27 31.75 29.98 32.39C30.7 33.03 31.64 33.37 32.6 33.32L34.04 33.32C34.4 33.32 34.74 33.46 34.99 33.72C35.24 33.97 35.38 34.31 35.38 34.66C35.38 35.02 35.24 35.36 34.99 35.61C34.74 35.86 34.4 36 34.04 36L31.24 36C31.08 35.99 30.93 36.02 30.78 36.07C30.63 36.13 30.5 36.21 30.38 36.32C30.27 36.43 30.18 36.56 30.12 36.71C30.06 36.85 30.02 37.01 30.02 37.17C30.02 37.32 30.06 37.48 30.12 37.62C30.18 37.77 30.27 37.9 30.38 38.01C30.5 38.12 30.63 38.2 30.78 38.26C30.93 38.31 31.08 38.34 31.24 38.33L32.16 38.33L32.16 39.08C32.17 39.38 32.3 39.67 32.51 39.88C32.73 40.08 33.02 40.2 33.32 40.2C33.62 40.2 33.91 40.08 34.13 39.88C34.35 39.67 34.48 39.38 34.49 39.08L34.49 38.3C35.45 38.23 36.34 37.78 36.97 37.05C37.6 36.33 37.93 35.38 37.87 34.42C37.81 33.46 37.38 32.57 36.66 31.92C35.94 31.28 35 30.95 34.04 30.99L32.6 30.99C32.42 31 32.24 30.97 32.07 30.91C31.9 30.84 31.75 30.74 31.62 30.62C31.49 30.49 31.39 30.34 31.32 30.18C31.25 30.01 31.21 29.84 31.21 29.66C31.21 29.48 31.25 29.3 31.32 29.13C31.39 28.97 31.49 28.82 31.62 28.69C31.75 28.57 31.9 28.47 32.07 28.41C32.24 28.34 32.42 28.31 32.6 28.32Z" fill="#FBD846" fill-opacity="1.000000" fill-rule="nonzero"/>
	<path id="Vector" d="M20.47 31.33C20.25 31.55 20.13 31.84 20.12 32.15C20.12 32.22 20.13 32.3 20.15 32.38C20.16 32.45 20.18 32.52 20.22 32.59C20.24 32.66 20.28 32.73 20.32 32.8C20.36 32.86 20.41 32.92 20.47 32.97C20.52 33.03 20.58 33.07 20.64 33.12C20.71 33.16 20.77 33.19 20.85 33.22C20.92 33.25 20.99 33.28 21.07 33.29C21.14 33.31 21.22 33.31 21.29 33.31C21.6 33.31 21.9 33.19 22.12 32.97C22.17 32.92 22.22 32.86 22.26 32.8C22.3 32.73 22.34 32.66 22.37 32.59C22.4 32.52 22.42 32.45 22.44 32.38C22.45 32.3 22.46 32.22 22.46 32.15C22.46 31.92 22.39 31.69 22.26 31.5C22.13 31.31 21.95 31.16 21.73 31.08C21.52 30.99 21.29 30.97 21.06 31.01C20.84 31.06 20.63 31.17 20.47 31.33L20.47 31.33Z" fill="#FBD846" fill-opacity="1.000000" fill-rule="nonzero"/>
	<path id="Vector" d="M46.01 32.8C46.05 32.87 46.1 32.93 46.15 32.98C46.28 33.1 46.42 33.2 46.58 33.25C46.75 33.31 46.92 33.33 47.09 33.32C47.26 33.3 47.43 33.25 47.58 33.16C47.72 33.07 47.85 32.95 47.95 32.8C47.99 32.74 48.03 32.67 48.05 32.6C48.08 32.53 48.11 32.46 48.12 32.39C48.14 32.31 48.15 32.24 48.15 32.16C48.15 32 48.13 31.85 48.07 31.7C48.01 31.55 47.93 31.42 47.82 31.3C47.71 31.19 47.58 31.1 47.44 31.04C47.29 30.98 47.14 30.94 46.98 30.94C46.82 30.94 46.66 30.98 46.52 31.04C46.38 31.1 46.25 31.19 46.14 31.3C46.03 31.42 45.94 31.55 45.89 31.7C45.83 31.85 45.81 32 45.81 32.16C45.81 32.24 45.82 32.31 45.83 32.39C45.85 32.46 45.87 32.53 45.9 32.6C45.93 32.67 45.97 32.74 46.01 32.8Z" fill="#FBD846" fill-opacity="1.000000" fill-rule="nonzero"/>
	<path id="Vector" d="M75.43 50.47C74.34 49.62 72.97 49.2 71.59 49.31C70.21 49.41 68.92 50.04 67.97 51.05L60.6 59.02C60.49 59.13 60.4 59.26 60.34 59.41C60.28 59.55 60.25 59.71 60.26 59.87C60.26 60.03 60.29 60.18 60.36 60.32C60.42 60.47 60.51 60.6 60.63 60.7C60.75 60.81 60.88 60.89 61.03 60.95C61.18 61 61.33 61.02 61.49 61.01C61.65 61 61.8 60.96 61.94 60.89C62.08 60.82 62.21 60.72 62.31 60.6L69.69 52.63C70.23 52.05 70.97 51.69 71.77 51.63C72.56 51.57 73.35 51.81 73.98 52.3C74.31 52.56 74.58 52.89 74.78 53.25C74.99 53.62 75.11 54.03 75.16 54.44C75.2 54.86 75.16 55.28 75.04 55.68C74.92 56.09 74.73 56.46 74.46 56.79L61.62 72.49C60.69 73.63 59.36 74.38 57.9 74.59L33.05 78.19C31.78 78.38 30.58 78.85 29.53 79.58C28.48 80.3 27.61 81.26 26.99 82.37L26.31 83.59L3.45 83.59L15.29 66.09C16.99 63.57 19.34 61.56 22.1 60.28C24.85 58.99 27.91 58.49 30.93 58.82C32.93 59.03 34.91 59.46 36.81 60.12C38.11 60.58 39.47 60.82 40.84 60.83L52.73 60.83C53.64 60.83 54.52 61.19 55.16 61.83C55.8 62.48 56.17 63.35 56.17 64.26C56.17 65.25 55.78 66.19 55.08 66.88C54.38 67.58 53.44 67.97 52.46 67.97L41.57 67.97C39.79 67.97 38.06 68.59 36.69 69.73L34.13 71.86C33.9 72.06 33.76 72.34 33.74 72.64C33.71 72.94 33.81 73.25 34 73.48C34.2 73.71 34.47 73.86 34.78 73.89C35.08 73.93 35.38 73.84 35.62 73.65L38.18 71.53C39.13 70.74 40.32 70.31 41.56 70.31L52.45 70.31C54.06 70.31 55.59 69.67 56.72 68.54C57.86 67.4 58.49 65.87 58.5 64.27C58.49 62.74 57.89 61.27 56.8 60.19C55.72 59.11 54.26 58.5 52.73 58.5L40.84 58.5C39.74 58.49 38.64 58.3 37.59 57.92C35.52 57.21 33.37 56.73 31.19 56.5C27.75 56.12 24.26 56.69 21.12 58.15C17.98 59.61 15.3 61.91 13.36 64.78L0.29 84.1C0.17 84.27 0.1 84.48 0.08 84.69C0.07 84.91 0.12 85.12 0.22 85.31C0.32 85.5 0.47 85.65 0.65 85.76C0.83 85.87 1.04 85.93 1.25 85.93L27 85.93C27.21 85.93 27.41 85.87 27.59 85.76C27.77 85.66 27.92 85.5 28.02 85.32L29.03 83.49C29.48 82.69 30.1 82 30.86 81.48C31.61 80.96 32.48 80.62 33.38 80.48L58.24 76.9C60.28 76.61 62.14 75.56 63.44 73.96L76.28 58.26C76.74 57.7 77.08 57.05 77.29 56.35C77.5 55.65 77.57 54.92 77.49 54.19C77.41 53.47 77.19 52.76 76.84 52.13C76.49 51.49 76.01 50.93 75.44 50.47L75.43 50.47Z" fill="#000000" fill-opacity="1.000000" fill-rule="nonzero"/>
</svg>
