<svg width="22.000000" height="22.001953" viewBox="0 0 22 22.002" fill="none" xmlns="http://www.w3.org/2000/svg" xmlns:xlink="http://www.w3.org/1999/xlink">
	<desc>
			Created with Pixso.
	</desc>
	<defs/>
	<path id="Vector" d="M9.92 18.72L12.77 15.89L17.47 19.15L16.41 20.21C15.71 20.91 14.68 21.16 13.73 20.88C10.82 20.01 8.21 18.43 5.89 16.12C3.57 13.8 1.98 11.2 1.11 8.3C0.82 7.35 1.08 6.32 1.79 5.62L2.84 4.57L6.12 9.25L3.28 12.09M9.69 8.06C11.99 7.8 13.96 9.69 13.8 11.99L13.76 12.53M9.69 4.83C13.85 4.37 17.42 7.78 17.12 11.95L17.06 12.92M9.69 1.06C16 0.36 21.41 5.53 20.97 11.85L20.87 13.32" stroke="#FBD846" stroke-opacity="1.000000" stroke-width="2.000000"/>
</svg>
