<svg width="21.054688" height="21.054688" viewBox="0 0 21.0547 21.0547" fill="none" xmlns="http://www.w3.org/2000/svg" xmlns:xlink="http://www.w3.org/1999/xlink">
	<desc>
			Created with Pixso.
	</desc>
	<defs/>
	<path id="Vector" d="M8.43 0C13.1 0 16.87 3.77 16.87 8.43C16.87 10.45 16.17 12.3 14.99 13.75L20.79 19.55C21.14 19.89 21.14 20.45 20.79 20.79C20.45 21.14 19.89 21.14 19.55 20.79L13.75 14.99C12.3 16.17 10.45 16.87 8.43 16.87C3.77 16.87 0 13.1 0 8.43C0 3.77 3.78 0 8.43 0ZM8.43 15.12C12.13 15.12 15.12 12.12 15.12 8.43C15.12 4.74 12.13 1.75 8.43 1.75C4.74 1.75 1.75 4.74 1.75 8.43C1.75 12.12 4.74 15.12 8.43 15.12Z" fill="#000000" fill-opacity="1.000000" fill-rule="nonzero"/>
</svg>
