<svg width="26.308594" height="31.728516" viewBox="0 0 26.3086 31.7285" fill="none" xmlns="http://www.w3.org/2000/svg" xmlns:xlink="http://www.w3.org/1999/xlink">
	<desc>
			Created with Pixso.
	</desc>
	<defs/>
	<path id="Shape" d="M24.65 16.38L24.65 29.85C24.65 30.49 24.2 30.97 23.61 30.97L2.73 30.97C2.14 30.97 1.69 30.49 1.69 29.85L1.69 16.38" stroke="#333333" stroke-opacity="1.000000" stroke-width="1.500000"/>
	<path id="Shape" d="M24.52 16.33L1.78 16.33C1.2 16.33 0.75 15.85 0.75 15.21L0.75 10.19C0.75 9.55 1.2 9.06 1.78 9.06L24.52 9.06C25.1 9.06 25.55 9.55 25.55 10.19L25.55 15.21C25.55 15.85 25.1 16.33 24.52 16.33Z" stroke="#333333" stroke-opacity="1.000000" stroke-width="1.500000"/>
	<path id="Shape" d="M13.29 8.63C12.29 7.55 15.18 2.62 16.17 1.55C17.16 0.48 18.79 0.48 19.83 1.55C20.82 2.62 20.82 4.43 19.83 5.5C18.83 6.58 14.32 9.7 13.29 8.63Z" stroke="#FBD846" stroke-opacity="1.000000" stroke-width="1.500000"/>
	<path id="Shape" d="M12.97 8.67C13.96 7.6 11.08 2.67 10.04 1.6C9.05 0.52 7.42 0.52 6.43 1.6C5.44 2.62 5.44 4.38 6.43 5.5C7.42 6.58 11.98 9.75 12.97 8.67Z" stroke="#FBD846" stroke-opacity="1.000000" stroke-width="1.500000"/>
	<path id="Shape" d="M10.04 13.02C10.04 13.02 10.71 10.77 13.33 9.65L13.33 30.93" stroke="#FBD846" stroke-opacity="1.000000" stroke-width="1.500000"/>
	<path id="Shape" d="M13.15 9.7C13.15 9.7 14.19 13.6 17.8 14.19" stroke="#FBD846" stroke-opacity="1.000000" stroke-width="1.500000"/>
</svg>
