<svg width="86.214844" height="86.000000" viewBox="0 0 86.2148 86" fill="none" xmlns="http://www.w3.org/2000/svg" xmlns:xlink="http://www.w3.org/1999/xlink">
	<desc>
			Created with Pixso.
	</desc>
	<defs/>
	<path id="Vector" d="M0 86L86.21 86L86.21 0L0 86ZM75.5 73.98L83.53 73.98L83.53 83.33L6.46 83.33L83.53 6.44L83.53 28.58L75.5 28.58L75.5 31.26L83.53 31.26L83.53 39.27L78.18 39.27L78.18 41.94L83.53 41.94L83.53 49.95L75.5 49.95L75.5 52.62L83.53 52.62L83.53 60.63L78.18 60.63L78.18 63.3L83.53 63.3L83.53 71.31L75.5 71.31L75.5 73.98ZM68.81 73.98L68.81 37.38L32.12 73.98L68.81 73.98ZM38.58 71.31L66.13 43.82L66.13 71.31L38.58 71.31Z" fill="#333333" fill-opacity="1.000000" fill-rule="evenodd"/>
	<path id="Vector" d="M0.05 62.46L3.35 49.26L52.75 0L62.67 9.89L13.28 59.16L0.05 62.46ZM3.73 58.79L11.91 56.75L50.85 17.9L44.72 11.78L5.77 50.63L3.73 58.79ZM52.75 3.77L46.61 9.89L52.75 16.02L58.89 9.89L52.75 3.77Z" fill="#FBD846" fill-opacity="1.000000" fill-rule="nonzero"/>
</svg>
