<svg width="25.160156" height="25.229492" viewBox="0 0 25.1602 25.2295" fill="none" xmlns="http://www.w3.org/2000/svg" xmlns:xlink="http://www.w3.org/1999/xlink">
	<desc>
			Created with Pixso.
	</desc>
	<defs/>
	<path id="Vector" d="M11.35 21.56L14.64 18.27L20.07 22.06L18.85 23.28C18.04 24.09 16.85 24.39 15.75 24.06C12.39 23.06 9.36 21.22 6.68 18.54C4 15.86 2.16 12.84 1.16 9.47C0.83 8.37 1.13 7.18 1.94 6.37L3.16 5.15L6.95 10.58L3.66 13.87M11.08 9.19C13.74 8.9 16.02 11.09 15.83 13.76L15.79 14.38M11.08 5.46C15.89 4.92 20.01 8.88 19.67 13.71L19.6 14.83M11.08 1.08C18.38 0.26 24.63 6.27 24.12 13.6L24 15.3" stroke="#FFFFFF" stroke-opacity="1.000000" stroke-width="2.000000"/>
</svg>
