<svg width="21.136719" height="12.058594" viewBox="0 0 21.1367 12.0586" fill="none" xmlns="http://www.w3.org/2000/svg" xmlns:xlink="http://www.w3.org/1999/xlink">
	<desc>
			Created with Pixso.
	</desc>
	<defs/>
	<path id="Vector" d="M21.02 10.89C20.99 10.83 20.97 10.78 20.95 10.75C20.58 10.09 19.88 9.28 18.85 8.32L18.82 8.29L18.81 8.28L18.8 8.27L18.79 8.27C18.32 7.83 18.02 7.52 17.9 7.37C17.67 7.08 17.62 6.78 17.75 6.48C17.83 6.25 18.16 5.77 18.74 5.04C19.04 4.65 19.27 4.34 19.45 4.1C20.72 2.41 21.27 1.33 21.1 0.87L21.04 0.76C20.99 0.69 20.88 0.63 20.69 0.58C20.51 0.52 20.28 0.51 19.99 0.55L16.82 0.57C16.77 0.55 16.7 0.55 16.6 0.58C16.5 0.6 16.46 0.61 16.46 0.61L16.4 0.64L16.36 0.67C16.32 0.69 16.28 0.73 16.24 0.78C16.19 0.84 16.16 0.9 16.13 0.98C15.78 1.86 15.39 2.69 14.95 3.45C14.68 3.91 14.43 4.3 14.2 4.64C13.98 4.97 13.78 5.22 13.63 5.37C13.48 5.53 13.34 5.66 13.21 5.75C13.09 5.85 12.99 5.89 12.93 5.87C12.86 5.86 12.8 5.84 12.74 5.83C12.64 5.76 12.55 5.67 12.49 5.56C12.43 5.45 12.39 5.3 12.36 5.13C12.34 4.96 12.33 4.81 12.33 4.68C12.32 4.56 12.32 4.38 12.33 4.16C12.34 3.93 12.34 3.77 12.34 3.69C12.34 3.41 12.35 3.11 12.36 2.79C12.37 2.46 12.38 2.2 12.39 2.01C12.39 1.82 12.4 1.62 12.4 1.41C12.4 1.19 12.38 1.03 12.36 0.91C12.33 0.78 12.29 0.67 12.24 0.55C12.19 0.44 12.12 0.35 12.02 0.29C11.92 0.23 11.8 0.18 11.65 0.14C11.26 0.05 10.76 0 10.16 0C8.8 -0.02 7.92 0.07 7.53 0.26C7.38 0.34 7.24 0.45 7.12 0.59C6.98 0.75 6.97 0.84 7.06 0.85C7.5 0.92 7.81 1.08 8 1.33L8.06 1.46C8.11 1.56 8.16 1.72 8.22 1.97C8.27 2.21 8.3 2.48 8.32 2.77C8.35 3.31 8.35 3.76 8.32 4.15C8.28 4.53 8.24 4.82 8.21 5.04C8.18 5.25 8.13 5.42 8.06 5.55C8 5.69 7.95 5.77 7.93 5.8C7.91 5.83 7.89 5.84 7.87 5.85C7.78 5.89 7.68 5.91 7.58 5.91C7.48 5.91 7.35 5.85 7.2 5.75C7.06 5.65 6.91 5.51 6.75 5.33C6.59 5.15 6.41 4.9 6.21 4.58C6.01 4.25 5.81 3.87 5.6 3.43L5.42 3.11C5.31 2.91 5.16 2.61 4.97 2.21C4.78 1.82 4.61 1.44 4.46 1.08C4.41 0.92 4.32 0.8 4.2 0.72L4.14 0.69C4.11 0.66 4.05 0.63 3.97 0.6C3.89 0.56 3.8 0.54 3.72 0.52L0.7 0.55C0.39 0.55 0.18 0.62 0.07 0.75L0.03 0.82C0.01 0.86 0 0.92 0 1C0 1.08 0.02 1.18 0.06 1.29C0.5 2.33 0.98 3.33 1.5 4.29C2.01 5.25 2.46 6.02 2.84 6.61C3.23 7.2 3.62 7.75 4.01 8.27C4.41 8.79 4.67 9.13 4.8 9.27C4.93 9.42 5.03 9.53 5.1 9.6L5.38 9.87C5.55 10.04 5.81 10.25 6.15 10.5C6.49 10.75 6.87 10.99 7.29 11.23C7.7 11.47 8.18 11.66 8.73 11.81C9.28 11.96 9.82 12.02 10.34 11.99L11.6 11.99C11.86 11.97 12.06 11.89 12.19 11.75L12.23 11.69C12.26 11.65 12.29 11.58 12.32 11.49C12.34 11.4 12.35 11.3 12.35 11.19C12.35 10.87 12.37 10.59 12.42 10.33C12.48 10.08 12.54 9.89 12.61 9.76C12.68 9.64 12.76 9.53 12.85 9.44C12.94 9.35 13 9.3 13.04 9.28C13.07 9.26 13.1 9.25 13.12 9.24C13.3 9.18 13.51 9.24 13.75 9.41C13.98 9.58 14.21 9.8 14.42 10.05C14.63 10.3 14.88 10.59 15.17 10.9C15.46 11.22 15.72 11.45 15.94 11.61L16.16 11.74C16.31 11.83 16.5 11.91 16.73 11.98C16.97 12.05 17.17 12.07 17.35 12.04L20.17 11.99C20.45 11.99 20.66 11.95 20.82 11.85C20.97 11.76 21.06 11.66 21.09 11.55C21.12 11.44 21.12 11.32 21.1 11.18C21.07 11.04 21.05 10.94 21.02 10.89Z" fill="#99CB38" fill-opacity="1.000000" fill-rule="nonzero"/>
</svg>
