<svg width="91.099609" height="91.799805" viewBox="0 0 91.0996 91.7998" fill="none" xmlns="http://www.w3.org/2000/svg" xmlns:xlink="http://www.w3.org/1999/xlink">
	<desc>
			Created with Pixso.
	</desc>
	<defs/>
	<path id="Vector" d="M59.69 33.7L29.5 57.7C28.9 58.2 28.69 59.2 29.29 59.79C29.59 60.2 30 60.4 30.5 60.4C30.79 60.4 31.19 60.29 31.4 60.1L61.59 36.1C62.19 35.6 62.4 34.6 61.79 34C61.29 33.29 60.4 33.2 59.69 33.7Z" fill="#333333" fill-opacity="1.000000" fill-rule="nonzero"/>
	<path id="Vector" d="M37.6 44.4C38 44.4 38.4 44.4 38.8 44.29C42.9 43.7 45.8 39.79 45.1 35.6C44.8 33.6 43.7 31.79 42.1 30.6C40.5 29.4 38.5 28.9 36.5 29.2C34.5 29.5 32.7 30.6 31.5 32.2C30.3 33.79 29.8 35.79 30.1 37.79C30.7 41.7 34 44.4 37.6 44.4ZM36.9 32.29C37.1 32.29 37.4 32.2 37.6 32.2C39.8 32.2 41.8 33.79 42.1 36.1C42.5 38.6 40.8 40.9 38.3 41.29C35.8 41.7 33.5 40 33.1 37.5C32.7 35 34.5 32.7 36.9 32.29Z" fill="#333333" fill-opacity="1.000000" fill-rule="nonzero"/>
	<path id="Vector" d="M53.59 49.4C49.4 49.4 46 52.8 46 57C46 61.2 49.4 64.6 53.59 64.6C57.8 64.6 61.19 61.2 61.19 57C61.09 52.8 57.69 49.4 53.59 49.4ZM53.59 61.5C51.09 61.5 49 59.4 49 56.9C49 54.4 51.09 52.3 53.59 52.3C56.09 52.3 58.19 54.4 58.19 56.9C58.09 59.5 56.09 61.5 53.59 61.5Z" fill="#333333" fill-opacity="1.000000" fill-rule="nonzero"/>
	<path id="Vector" d="M91 45.9C91 45.79 91.09 45.59 91.09 45.5C91.09 41.2 86.59 39 82.69 37.09C79.9 35.7 76.9 34.2 76.09 32.4C75.3 30.5 76.4 27.4 77.5 24.5C79 20.4 80.5 16.2 77.69 13.4C74.9 10.59 70.9 11.59 66.9 12.5C64.09 13.09 61.19 13.79 59.3 13C57.4 12.2 55.8 9.7 54.3 7.29C52.09 3.9 49.69 0 45.5 0C41.3 0 38.9 3.9 36.8 7.4C35.3 9.9 33.8 12.4 31.9 13.2C30 14 27 13.29 24.19 12.59C20.19 11.59 16.09 10.59 13.4 13.29C10.59 16.09 12 20.29 13.3 24.4C14.3 27.4 15.19 30.4 14.4 32.4C13.59 34.29 10.8 35.7 8.09 37.09C4.3 39.09 0 41.29 0 45.5C0 45.59 0 45.79 0.09 45.9C0.09 46 0 46.2 0 46.29C0 50.5 4.3 52.79 8.09 54.7C10.8 56.09 13.59 57.5 14.4 59.4C15.19 61.29 14.19 64.4 13.3 67.4C12 71.5 10.59 75.7 13.4 78.5C16.19 81.29 20.3 80.2 24.19 79.2C27 78.5 30 77.79 31.9 78.59C33.8 79.4 35.3 81.9 36.8 84.4C38.9 87.9 41.3 91.79 45.5 91.79C49.69 91.79 52.19 87.9 54.3 84.5C55.8 82.09 57.4 79.59 59.3 78.79C61.3 78 64.09 78.59 66.9 79.29C70.8 80.2 74.9 81.2 77.69 78.4C80.5 75.59 79 71.4 77.5 67.29C76.4 64.29 75.3 61.29 76.09 59.4C76.9 57.5 79.8 56.09 82.69 54.7C86.59 52.7 91.09 50.5 91.09 46.29C91.09 46.09 91 46 91 45.9ZM81.3 52C78 53.7 74.5 55.4 73.3 58.29C72 61.29 73.4 64.9 74.59 68.4C75.8 71.7 77 74.9 75.5 76.29C73.9 77.9 70.8 77.2 67.5 76.4C64.19 75.59 60.9 74.9 58 76.09C55.19 77.29 53.4 80.09 51.69 82.9C49.8 85.9 48 88.79 45.4 88.79C42.9 88.79 41.09 85.9 39.19 82.79C37.5 79.9 35.69 77 32.9 75.79C30 74.59 26.59 75.4 23.3 76.29C20 77.09 16.9 77.9 15.3 76.4C13.8 74.9 14.8 71.7 15.9 68.4C17 64.9 18.19 61.29 16.9 58.4C15.69 55.5 12.4 53.79 9.19 52.2C5.9 50.5 2.8 48.9 2.8 46.4C2.8 46.29 2.8 46.09 2.69 46C2.69 45.9 2.8 45.7 2.8 45.59C2.8 43.2 5.9 41.59 9.19 39.79C12.4 38.2 15.69 36.5 16.9 33.59C18.09 30.59 17 27 15.9 23.59C14.8 20.2 13.8 17 15.3 15.59C16.9 14 20 14.79 23.3 15.7C26.59 16.5 30 17.4 32.9 16.2C35.69 15 37.5 12.09 39.19 9.2C41.09 6.09 42.8 3.2 45.4 3.2C48 3.2 49.8 6.09 51.69 9.09C53.5 11.9 55.3 14.7 58 15.9C60.9 17.09 64.19 16.29 67.5 15.59C70.8 14.79 73.9 14.09 75.5 15.7C77 17.09 75.8 20.29 74.59 23.59C73.3 27.09 72 30.7 73.3 33.7C74.5 36.59 78 38.29 81.3 40C84.8 41.7 88 43.4 88 45.79C88 45.9 88 46.09 88.09 46.2C88.09 46.29 88 46.5 88 46.59C88.09 48.59 84.8 50.29 81.3 52Z" fill="#FBD846" fill-opacity="1.000000" fill-rule="nonzero"/>
</svg>
