<svg width="22.652344" height="22.716797" viewBox="0 0 22.6523 22.7168" fill="none" xmlns="http://www.w3.org/2000/svg" xmlns:xlink="http://www.w3.org/1999/xlink">
	<desc>
			Created with Pixso.
	</desc>
	<defs/>
	<path id="Vector" d="M10.17 19.72L13.25 16.65L18.33 20.19L17.19 21.33C16.43 22.09 15.32 22.37 14.29 22.07C11.14 21.13 8.32 19.4 5.81 16.9C3.31 14.39 1.58 11.57 0.64 8.42C0.33 7.39 0.62 6.28 1.38 5.52L2.52 4.38L6.06 9.46L2.99 12.53M9.92 8.16C12.41 7.88 14.54 9.93 14.37 12.43L14.33 13.01M9.92 4.67C14.42 4.16 18.27 7.86 17.96 12.38L17.88 13.43M9.92 0.58C16.75 -0.19 22.6 5.42 22.11 12.28L22 13.87" stroke="#99CB38" stroke-opacity="1.000000" stroke-width="1.000000"/>
</svg>
